<svg width="129" height="104" viewBox="0 0 129 104" fill="none" xmlns="http://www.w3.org/2000/svg">
<circle cx="113" cy="41" r="16" fill="#B34A4A"/>
<path d="M97.26 33H110.84V36L104.2 40.36L103.76 39.2H105.26C106.767 39.2 107.987 39.3733 108.92 39.72C109.867 40.0667 110.553 40.5533 110.98 41.18C111.42 41.8067 111.64 42.54 111.64 43.38C111.64 44.34 111.353 45.1933 110.78 45.94C110.22 46.6867 109.38 47.2733 108.26 47.7C107.153 48.1133 105.773 48.32 104.12 48.32C102.56 48.32 101.2 48.1067 100.04 47.68C98.88 47.2533 97.9733 46.6467 97.32 45.86C96.68 45.06 96.3333 44.1267 96.28 43.06H100.42C100.513 43.7267 100.86 44.24 101.46 44.6C102.06 44.96 102.947 45.14 104.12 45.14C105.227 45.14 106.053 44.9667 106.6 44.62C107.147 44.2733 107.42 43.7933 107.42 43.18C107.42 42.8067 107.32 42.4867 107.12 42.22C106.933 41.94 106.613 41.7333 106.16 41.6C105.707 41.4533 105.087 41.38 104.3 41.38H101.86V38.7L108.78 34.2L109.24 36.18H97.26V33ZM119.11 33C120.884 33 122.437 33.3133 123.77 33.94C125.117 34.5533 126.157 35.4267 126.89 36.56C127.637 37.68 128.01 38.9933 128.01 40.5C128.01 42.0067 127.637 43.3267 126.89 44.46C126.157 45.58 125.117 46.4533 123.77 47.08C122.437 47.6933 120.884 48 119.11 48H111.63V33H119.11ZM115.75 46.26L113.77 44.32H119.43C120.324 44.32 121.097 44.1667 121.75 43.86C122.417 43.54 122.93 43.0933 123.29 42.52C123.65 41.9467 123.83 41.2733 123.83 40.5C123.83 39.7133 123.65 39.04 123.29 38.48C122.93 37.9067 122.417 37.4667 121.75 37.16C121.097 36.84 120.324 36.68 119.43 36.68H113.77L115.75 34.74V46.26Z" fill="white"/>
<circle cx="14.5" cy="45.5" r="12.5" fill="white"/>
<path d="M11.26 43.56H16.72C17.3867 43.56 17.9067 43.4067 18.28 43.1C18.6533 42.7933 18.84 42.3667 18.84 41.82C18.84 41.26 18.6533 40.8333 18.28 40.54C17.9067 40.2333 17.3867 40.08 16.72 40.08H10.68L12.54 38.1V52H8.4V37H17.3C18.4467 37 19.4467 37.2067 20.3 37.62C21.1533 38.02 21.82 38.58 22.3 39.3C22.78 40.0067 23.02 40.8467 23.02 41.82C23.02 42.7667 22.78 43.6 22.3 44.32C21.82 45.04 21.1533 45.6 20.3 46C19.4467 46.4 18.4467 46.6 17.3 46.6H11.26V43.56ZM13.5 44.98H18.16L23.54 52H18.74L13.5 44.98Z" fill="#3A3838"/>
<circle cx="63.5" cy="49.5" r="49.5" fill="#FDCBCB"/>
<path d="M75.4721 46.9444L54 44.7407L61.9108 57.1852L75.4721 59L87.9033 54.7222L92 38L75.4721 46.9444Z" fill="#3A3838"/>
<circle cx="15" cy="70" r="15" fill="#DEDE59"/>
<ellipse cx="56" cy="84.5" rx="19" ry="19.5" fill="#3C3131"/>
<path d="M62.76 85.5C62.72 86.4067 62.5333 87.2733 62.2 88.1C61.88 88.9133 61.4067 89.64 60.78 90.28C60.1667 90.92 59.3933 91.42 58.46 91.78C57.54 92.14 56.4667 92.32 55.24 92.32C54.0667 92.32 52.9667 92.1533 51.94 91.82C50.9133 91.4733 50.0067 90.9667 49.22 90.3C48.4467 89.6333 47.84 88.8133 47.4 87.84C46.9733 86.8667 46.76 85.7533 46.76 84.5C46.76 83.2467 46.98 82.1333 47.42 81.16C47.86 80.1867 48.4733 79.3667 49.26 78.7C50.06 78.0333 50.98 77.5333 52.02 77.2C53.0733 76.8533 54.22 76.68 55.46 76.68C57.1133 76.68 58.54 76.9333 59.74 77.44C60.94 77.9467 61.9067 78.64 62.64 79.52C63.3733 80.4 63.8467 81.42 64.06 82.58H59.88C59.7467 82.0733 59.4733 81.64 59.06 81.28C58.66 80.9067 58.1533 80.6267 57.54 80.44C56.94 80.24 56.2533 80.14 55.48 80.14C54.5467 80.14 53.74 80.3067 53.06 80.64C52.38 80.96 51.8533 81.4467 51.48 82.1C51.1067 82.74 50.92 83.54 50.92 84.5C50.92 85.4733 51.12 86.2933 51.52 86.96C51.92 87.6267 52.4867 88.1267 53.22 88.46C53.9667 88.7933 54.84 88.96 55.84 88.96C56.8133 88.96 57.6733 88.8267 58.42 88.56C59.1667 88.28 59.76 87.8733 60.2 87.34C60.6533 86.8067 60.9133 86.1667 60.98 85.42L62.76 85.5ZM56.24 87.16V84.24H64.2V92H61.26L60.68 86.06L61.46 87.16H56.24Z" fill="white"/>
<ellipse cx="106" cy="71.5" rx="19" ry="19.5" fill="#53738D"/>
<path d="M46.659 32.4791C38.6572 34.2161 32 48 32 48C32 48 38.5167 41.6774 45.2495 39.4081C51.9824 37.1387 65.8286 39.4081 65.8286 39.4081C65.8286 39.4081 54.6609 30.7421 46.659 32.4791Z" fill="#3A3838"/>
<path d="M90.9181 26.3816C85.6174 28.2998 82.7429 37.1908 82.7429 37.1908C82.7429 37.1908 86.3403 33.9658 90.9181 32.4791C95.4959 30.9925 106 30.4004 106 30.4004C106 30.4004 96.2188 24.4634 90.9181 26.3816Z" fill="#3A3838"/>
<path d="M110.72 75.7H109.44L112.68 66.58H116.76L112.48 78H108.32L104.74 68.52H106.1L102.48 78H98.32L94.04 66.58H98.16L101.38 75.7H100.1L103.48 66.58H107.38L110.72 75.7Z" fill="white"/>
<path d="M9.32 74.12V70.78H19.66V74.12H9.32ZM17.3 62L24.12 77H19.7L13.98 63.76H15.18L9.44 77H5.02L11.84 62H17.3Z" fill="white"/>
</svg>
