<svg width="155" height="79" viewBox="0 0 155 79" fill="none" xmlns="http://www.w3.org/2000/svg">
<path d="M76.56 63.28C75.24 63.28 74.0667 63.0333 73.04 62.54C72.0133 62.0333 71.2067 61.3333 70.62 60.44C70.0333 59.5467 69.74 58.5067 69.74 57.32C69.74 56.1467 70.0133 55.12 70.56 54.24C71.12 53.3467 71.8867 52.6533 72.86 52.16C73.8467 51.6533 74.9733 51.4 76.24 51.4C77.5067 51.4 78.6 51.6867 79.52 52.26C80.4533 52.82 81.1733 53.6133 81.68 54.64C82.1867 55.6667 82.44 56.8733 82.44 58.26H71.78V56.28H81.14L79.84 57.02C79.8 56.2733 79.62 55.6333 79.3 55.1C78.9933 54.5667 78.5733 54.16 78.04 53.88C77.52 53.5867 76.9 53.44 76.18 53.44C75.42 53.44 74.7533 53.5933 74.18 53.9C73.62 54.2067 73.18 54.64 72.86 55.2C72.54 55.7467 72.38 56.4 72.38 57.16C72.38 58 72.5667 58.7267 72.94 59.34C73.3267 59.9533 73.8667 60.4267 74.56 60.76C75.2667 61.08 76.1 61.24 77.06 61.24C77.9267 61.24 78.8133 61.1067 79.72 60.84C80.6267 60.56 81.4267 60.1733 82.12 59.68V61.56C81.4267 62.0933 80.58 62.5133 79.58 62.82C78.5933 63.1267 77.5867 63.28 76.56 63.28ZM97.0792 58.54C96.9459 59.4733 96.5792 60.3 95.9792 61.02C95.3792 61.7267 94.6126 62.28 93.6792 62.68C92.7459 63.08 91.7059 63.28 90.5592 63.28C89.2526 63.28 88.0992 63.0333 87.0992 62.54C86.1126 62.0333 85.3392 61.3333 84.7792 60.44C84.2192 59.5467 83.9392 58.5133 83.9392 57.34C83.9392 56.1667 84.2192 55.1333 84.7792 54.24C85.3392 53.3467 86.1126 52.6533 87.0992 52.16C88.0992 51.6533 89.2526 51.4 90.5592 51.4C91.7059 51.4 92.7459 51.6 93.6792 52C94.6126 52.4 95.3792 52.96 95.9792 53.68C96.5792 54.3867 96.9459 55.2133 97.0792 56.16H94.4592C94.2726 55.3067 93.8259 54.64 93.1192 54.16C92.4126 53.68 91.5592 53.44 90.5592 53.44C89.7592 53.44 89.0592 53.6 88.4592 53.92C87.8592 54.2267 87.3926 54.6733 87.0592 55.26C86.7392 55.8333 86.5792 56.5267 86.5792 57.34C86.5792 58.14 86.7392 58.8333 87.0592 59.42C87.3926 60.0067 87.8592 60.46 88.4592 60.78C89.0592 61.0867 89.7592 61.24 90.5592 61.24C91.5726 61.24 92.4326 60.9933 93.1392 60.5C93.8459 60.0067 94.2859 59.3533 94.4592 58.54H97.0792ZM99.0519 47.6H101.652V63H99.0519V47.6ZM106.152 51.4C107.219 51.4 108.125 51.6133 108.872 52.04C109.619 52.4667 110.185 53.08 110.572 53.88C110.972 54.6667 111.172 55.62 111.172 56.74V63H108.572V57.16C108.572 55.9733 108.292 55.08 107.732 54.48C107.185 53.8667 106.379 53.56 105.312 53.56C104.579 53.56 103.932 53.7267 103.372 54.06C102.825 54.38 102.399 54.8333 102.092 55.42C101.799 56.0067 101.652 56.6933 101.652 57.48L100.732 56.98C100.852 55.8067 101.159 54.8067 101.652 53.98C102.145 53.1533 102.779 52.52 103.552 52.08C104.325 51.6267 105.192 51.4 106.152 51.4ZM122.758 56.56C122.758 55.6 122.418 54.8467 121.738 54.3C121.072 53.7533 120.052 53.48 118.678 53.48C117.945 53.48 117.185 53.5733 116.398 53.76C115.612 53.9467 114.858 54.2533 114.138 54.68V52.66C114.925 52.22 115.732 51.9 116.558 51.7C117.398 51.5 118.292 51.4 119.238 51.4C120.465 51.4 121.532 51.5933 122.438 51.98C123.358 52.3667 124.072 52.94 124.578 53.7C125.098 54.46 125.358 55.4067 125.358 56.54V63H122.778L122.758 56.56ZM118.078 55.64C119.745 55.5867 121.052 55.7 121.998 55.98C122.958 56.26 123.485 56.4867 123.578 56.66C123.672 56.82 123.718 57.7467 123.718 59.44C123.718 59.7733 123.585 60.16 123.318 60.6C123.052 61.04 122.672 61.4667 122.178 61.88C121.685 62.28 121.092 62.6133 120.398 62.88C119.705 63.1467 118.932 63.28 118.078 63.28C117.145 63.28 116.305 63.1267 115.558 62.82C114.825 62.5133 114.245 62.0733 113.818 61.5C113.392 60.9267 113.178 60.2467 113.178 59.46C113.178 58.6733 113.392 58 113.818 57.44C114.258 56.8667 114.845 56.4333 115.578 56.14C116.325 55.8333 117.158 55.6667 118.078 55.64ZM119.658 57.58C118.192 57.58 117.185 57.7533 116.638 58.1C116.092 58.4333 115.818 58.8733 115.818 59.42C115.818 59.9667 116.085 60.4133 116.618 60.76C117.165 61.0933 117.918 61.26 118.878 61.26C120.012 61.26 120.938 60.94 121.658 60.3C122.392 59.6467 122.758 58.9 122.758 58.06C122.172 57.74 121.138 57.58 119.658 57.58ZM134.119 63.28C132.799 63.28 131.625 63.0333 130.599 62.54C129.572 62.0333 128.765 61.3333 128.179 60.44C127.592 59.5467 127.299 58.5067 127.299 57.32C127.299 56.1467 127.572 55.12 128.119 54.24C128.679 53.3467 129.445 52.6533 130.419 52.16C131.405 51.6533 132.532 51.4 133.799 51.4C135.065 51.4 136.159 51.6867 137.079 52.26C138.012 52.82 138.732 53.6133 139.239 54.64C139.745 55.6667 139.999 56.8733 139.999 58.26H129.339V56.28H138.699L137.399 57.02C137.359 56.2733 137.179 55.6333 136.859 55.1C136.552 54.5667 136.132 54.16 135.599 53.88C135.079 53.5867 134.459 53.44 133.739 53.44C132.979 53.44 132.312 53.5933 131.739 53.9C131.179 54.2067 130.739 54.64 130.419 55.2C130.099 55.7467 129.939 56.4 129.939 57.16C129.939 58 130.125 58.7267 130.499 59.34C130.885 59.9533 131.425 60.4267 132.119 60.76C132.825 61.08 133.659 61.24 134.619 61.24C135.485 61.24 136.372 61.1067 137.279 60.84C138.185 60.56 138.985 60.1733 139.679 59.68V61.56C138.985 62.0933 138.139 62.5133 137.139 62.82C136.152 63.1267 135.145 63.28 134.119 63.28ZM147.794 61.84H146.794L151.434 51.68H154.214L148.694 63H145.774L140.254 51.68H143.114L147.794 61.84Z" fill="white"/>
<path d="M31 64L54.5 16H60.5V56L80 16H84L60.5 64H56.5V20.5L35.5 64H31Z" fill="white"/>
<path d="M24.96 64L0.96 16H4.928L26.816 60.544L48.64 16H52.672L28.672 64H24.96Z" fill="white"/>
</svg>
